mtllib Bandaid.mtl
usemtl phong1SG
# Blender v2.78 (sub 0) OBJ File: 'Bandaid.blend'
# www.blender.org
o Bandaid_Q
v 0.056446 -0.000000 0.000058
v 0.056446 -0.000000 0.013636
v 0.061570 -0.000000 0.007517
v 0.063263 -0.000000 0.000058
v 0.056446 0.000000 -0.013520
v 0.061570 0.000000 -0.007400
v 0.051415 0.000000 -0.015835
v 0.051415 -0.000000 0.000058
v 0.051415 -0.000000 0.015951
v -0.055344 -0.000000 0.000058
v -0.062161 -0.000000 0.000058
v -0.060468 -0.000000 0.007517
v -0.055344 -0.000000 0.013636
v -0.055344 0.000000 -0.013520
v -0.060468 0.000000 -0.007400
v -0.050313 0.000000 -0.015835
v -0.050313 -0.000000 0.000058
v -0.050313 -0.000000 0.015951
vt 0.9374 0.1306
vt 0.9777 0.0720
vt 0.9910 0.1306
vt 0.9777 0.1892
vt 0.9374 0.2373
vt 0.8979 0.1306
vt 0.8979 0.2555
vt 0.9374 0.0240
vt 0.0593 0.1306
vt 0.0191 0.0720
vt 0.0593 0.0240
vt 0.0191 0.1892
vt 0.0593 0.2373
vt 0.0989 0.1306
vt 0.0989 0.2555
vt 0.0989 0.0058
vt 0.8979 0.0058
vt 0.0058 0.1306
vn 0.0000 1.0000 0.0000
s 1
f 1/1/1 3/2/1 4/3/1
f 1/1/1 6/4/1 5/5/1
f 8/6/1 5/5/1 7/7/1
f 8/6/1 2/8/1 1/1/1
f 10/9/1 12/10/1 13/11/1
f 15/12/1 10/9/1 14/13/1
f 14/13/1 17/14/1 16/15/1
f 17/14/1 13/11/1 18/16/1
f 16/15/1 8/6/1 7/7/1
f 17/14/1 9/17/1 8/6/1
f 1/1/1 2/8/1 3/2/1
f 1/1/1 4/3/1 6/4/1
f 8/6/1 1/1/1 5/5/1
f 8/6/1 9/17/1 2/8/1
f 10/9/1 11/18/1 12/10/1
f 15/12/1 11/18/1 10/9/1
f 14/13/1 10/9/1 17/14/1
f 17/14/1 10/9/1 13/11/1
f 16/15/1 17/14/1 8/6/1
f 17/14/1 18/16/1 9/17/1
