# Blender 4.3.2
# www.blender.org
mtllib coin.mtl
o Coin
v -0.375000 0.000000 0.075000
v -0.375000 -0.000000 -0.075000
v -0.265165 -0.265165 0.075000
v -0.265165 -0.265165 -0.075000
v 0.000000 -0.375000 0.075000
v -0.000000 -0.375000 -0.075000
v 0.265165 -0.265165 0.075000
v 0.265165 -0.265165 -0.075000
v 0.375000 0.000000 0.075000
v 0.375000 -0.000000 -0.075000
v 0.265165 0.265165 0.075000
v 0.265165 0.265165 -0.075000
v 0.000000 0.375000 0.075000
v -0.000000 0.375000 -0.075000
v -0.265165 0.265165 0.075000
v -0.265165 0.265165 -0.075000
vn -0.9239 -0.3827 -0.0000
vn -0.3827 -0.9239 -0.0000
vn 0.3827 -0.9239 -0.0000
vn 0.9239 -0.3827 -0.0000
vn 0.9239 0.3827 -0.0000
vn 0.3827 0.9239 -0.0000
vn -0.0000 -0.0000 -1.0000
vn -0.3827 0.9239 -0.0000
vn -0.9239 0.3827 -0.0000
vn -0.0000 -0.0000 1.0000
vt 0.156250 0.773438
vt 0.187500 0.738281
vt 0.187500 0.773438
vt 0.156250 0.738281
vt 0.187500 0.726562
vt 0.183594 0.726562
vt 0.156250 0.726562
vt 0.183594 0.738281
vt 0.183594 0.773438
vt 0.156250 0.808594
vt 0.183594 0.808594
vt 0.156250 0.820312
vt 0.148438 0.867188
vt 0.066406 0.781250
vt 0.089844 0.718750
vt 0.156250 0.824219
vt 0.187500 0.808594
vt 0.187500 0.824219
vt 0.062500 0.781250
vt 0.089844 0.839844
vt 0.148438 0.691406
vt 0.148438 0.695312
vt 0.183594 0.820312
s 0
usemtl Shared_material
f 2/1/1 3/2/1 1/3/1
f 4/4/2 5/5/2 3/2/2
f 6/6/3 7/4/3 5/7/3
f 8/8/4 9/1/4 7/4/4
f 10/9/5 11/10/5 9/1/5
f 12/11/6 13/12/6 11/10/6
f 14/13/7 10/14/7 8/15/7
f 14/16/8 15/17/8 13/18/8
f 16/10/9 1/3/9 15/17/9
f 5/13/10 9/19/10 11/15/10
f 3/20/10 5/13/10 13/21/10
f 2/14/7 14/13/7 6/22/7
f 2/1/1 4/4/1 3/2/1
f 4/4/2 6/7/2 5/5/2
f 6/6/3 8/8/3 7/4/3
f 8/8/4 10/9/4 9/1/4
f 10/9/5 12/11/5 11/10/5
f 12/11/6 14/23/6 13/12/6
f 8/15/7 6/22/7 14/13/7
f 14/13/7 12/20/7 10/14/7
f 14/16/8 16/10/8 15/17/8
f 16/10/9 2/1/9 1/3/9
f 11/15/10 13/21/10 5/13/10
f 5/13/10 7/20/10 9/19/10
f 15/15/10 1/19/10 13/21/10
f 1/19/10 3/20/10 13/21/10
f 6/22/7 4/15/7 2/14/7
f 2/14/7 16/20/7 14/13/7
