# Blender 4.3.2
# www.blender.org
mtllib number3.mtl
o 3
v -0.973918 -0.710589 0.100000
v -1.048643 -0.410751 0.100000
v -0.999771 -0.073580 0.100000
v -0.615225 -0.951320 0.100000
v -0.788457 -0.866934 0.100000
v -0.383317 -1.008603 0.100000
v -0.374022 -0.730868 0.100000
v -0.699450 -0.405440 0.100000
v -0.868484 0.074910 0.100000
v -0.374022 -0.405440 0.100000
v -0.374022 -0.080012 0.100000
v -0.936138 0.308879 0.100000
v -1.031807 0.569966 0.100000
v -0.965810 0.869932 0.100000
v -0.786280 0.165437 0.100000
v -0.699450 0.570844 0.100000
v -0.374022 0.245416 0.100000
v -0.374022 0.570844 0.100000
v -0.805669 1.035681 0.100000
v -0.623474 1.122346 0.100000
v -0.374022 0.896272 0.100000
v -0.383796 1.175155 0.100000
v -0.973918 -0.710589 -0.099998
v -1.048643 -0.410751 -0.099998
v -0.999771 -0.073580 -0.099998
v -0.615225 -0.951320 -0.099998
v -0.788457 -0.866934 -0.099998
v -0.383317 -1.008603 -0.099998
v -0.374022 -0.730868 -0.099998
v -0.699450 -0.405440 -0.099998
v -0.868484 0.074910 -0.099998
v -0.374022 -0.405440 -0.099998
v -0.374022 -0.080012 -0.099998
v -0.936138 0.308879 -0.099998
v -1.031807 0.569966 -0.099998
v -0.965810 0.869932 -0.099998
v -0.786280 0.165437 -0.099998
v -0.699450 0.570844 -0.099998
v -0.374022 0.245416 -0.099998
v -0.374022 0.570844 -0.099998
v -0.805669 1.035681 -0.099998
v -0.623474 1.122346 -0.099998
v -0.374022 0.896272 -0.099998
v -0.383796 1.175155 -0.099998
v -0.045407 -1.014556 0.100000
v -0.048594 -0.730868 0.100000
v 0.287135 -0.976999 0.100000
v 0.276834 -0.730868 0.100000
v -0.097809 -0.332178 0.100000
v -0.073387 -0.193466 0.100000
v 0.469051 -0.318976 0.100000
v 0.312264 -0.175205 0.100000
v 0.474651 -0.918523 0.100000
v 0.650805 -0.836611 0.100000
v 0.533234 -0.348263 0.100000
v -0.073388 0.365783 0.100000
v -0.095768 0.501006 0.100000
v 0.318172 0.351460 0.100000
v 0.448279 0.460366 0.100000
v -0.048594 0.896272 0.100000
v -0.045980 1.181221 0.100000
v 0.276834 0.896272 0.100000
v 0.293380 1.148751 0.100000
v 0.498855 0.492214 0.100000
v 0.622619 0.976685 0.100000
v 0.457084 1.073039 0.100000
v -0.045407 -1.014556 -0.099998
v -0.048594 -0.730868 -0.099998
v 0.287135 -0.976999 -0.099998
v 0.276834 -0.730868 -0.099998
v -0.097809 -0.332178 -0.099998
v -0.073387 -0.193466 -0.099998
v 0.469051 -0.318976 -0.099998
v 0.312264 -0.175205 -0.099998
v 0.474651 -0.918523 -0.099998
v 0.650805 -0.836611 -0.099998
v 0.533234 -0.348263 -0.099998
v -0.073388 0.365783 -0.099998
v -0.095768 0.501006 -0.099998
v 0.318172 0.351460 -0.099998
v 0.448279 0.460366 -0.099998
v -0.048594 0.896272 -0.099998
v -0.045980 1.181221 -0.099998
v 0.276834 0.896272 -0.099998
v 0.293380 1.148751 -0.099998
v 0.498855 0.492214 -0.099998
v 0.622619 0.976685 -0.099998
v 0.457084 1.073039 -0.099998
vn -0.0000 -0.0000 1.0000
vn -0.0000 -0.0000 -1.0000
vn -0.4379 -0.8990 -0.0000
vn -0.2398 -0.9708 -0.0000
vn -0.9897 0.1434 -0.0000
vn -0.9703 -0.2418 -0.0000
vn -0.6445 -0.7646 -0.0000
vn -0.7492 0.6624 -0.0000
vn 0.1122 -0.9937 -0.0000
vn 0.4216 -0.9068 -0.0000
vn 0.9849 -0.1734 -0.0000
vn -0.0233 0.9997 -0.0000
vn 0.0473 -0.9989 -0.0000
vn 0.9722 0.2341 -0.0000
vn 0.2977 -0.9547 -0.0000
vn 0.4151 0.9098 -0.0000
vn -0.9389 -0.3441 -0.0000
vn -0.4296 0.9030 -0.0000
vn -0.2152 0.9766 -0.0000
vn -0.9766 0.2149 -0.0000
vn -0.6915 -0.7224 -0.0000
vn -0.7192 0.6948 -0.0000
vn 0.9866 0.1633 -0.0000
vn 0.0366 0.9993 -0.0000
vn -0.0745 -0.9972 -0.0000
vn 0.0952 0.9955 -0.0000
vn 0.5031 0.8642 -0.0000
vn 0.9689 -0.2475 -0.0000
vn 0.5329 -0.8462 -0.0000
vn 0.4198 0.9076 -0.0000
vn -0.7403 0.6723 -0.0000
vn 0.9999 -0.0112 -0.0000
vn -0.0176 -0.9998 -0.0000
vn -0.0180 0.9998 -0.0000
s 0
f 4//1 7//1 5//1
f 8//1 11//1 9//1
f 8//1 3//1 2//1
f 7//1 8//1 5//1
f 1//1 8//1 2//1
f 17//1 16//1 15//1
f 21//1 20//1 19//1
f 12//1 16//1 13//1
f 16//1 21//1 19//1
f 16//1 14//1 13//1
f 29//2 26//2 27//2
f 33//2 30//2 31//2
f 25//2 30//2 24//2
f 30//2 29//2 27//2
f 30//2 23//2 24//2
f 38//2 39//2 37//2
f 42//2 43//2 41//2
f 38//2 34//2 35//2
f 43//2 38//2 41//2
f 36//2 38//2 35//2
f 47//1 46//1 45//1
f 53//1 48//1 47//1
f 48//1 49//1 46//1
f 48//1 55//1 51//1
f 60//1 63//1 61//1
f 62//1 66//1 63//1
f 57//1 62//1 60//1
f 64//1 62//1 59//1
f 68//2 69//2 67//2
f 70//2 75//2 69//2
f 71//2 70//2 68//2
f 77//2 70//2 73//2
f 85//2 82//2 83//2
f 88//2 84//2 85//2
f 84//2 79//2 82//2
f 84//2 86//2 81//2
f 45//1 7//1 6//1
f 10//1 50//1 11//1
f 46//1 10//1 7//1
f 56//1 18//1 17//1
f 21//1 61//1 22//1
f 18//1 60//1 21//1
f 29//2 67//2 28//2
f 72//2 32//2 33//2
f 32//2 68//2 29//2
f 40//2 78//2 39//2
f 83//2 43//2 44//2
f 82//2 40//2 43//2
f 4//3 27//3 26//3
f 26//4 6//4 4//4
f 3//5 24//5 2//5
f 2//6 23//6 1//6
f 23//7 5//7 1//7
f 31//8 3//8 9//8
f 67//9 47//9 45//9
f 76//10 53//10 75//10
f 72//11 49//11 71//11
f 73//12 49//12 51//12
f 72//13 52//13 50//13
f 77//14 54//14 76//14
f 69//15 53//15 47//15
f 77//16 51//16 55//16
f 13//17 34//17 12//17
f 20//18 41//18 19//18
f 44//19 20//19 22//19
f 14//20 35//20 13//20
f 34//21 15//21 12//21
f 41//22 14//22 19//22
f 79//23 56//23 78//23
f 80//24 56//24 58//24
f 79//25 59//25 57//25
f 85//26 61//26 63//26
f 88//27 65//27 87//27
f 87//28 64//28 86//28
f 81//29 64//29 59//29
f 88//30 63//30 66//30
f 11//1 15//1 9//1
f 37//2 33//2 31//2
f 52//1 56//1 50//1
f 78//2 74//2 72//2
f 15//31 31//31 9//31
f 80//32 52//32 74//32
f 50//1 17//1 11//1
f 39//2 72//2 33//2
f 6//33 67//33 45//33
f 83//34 22//34 61//34
f 4//1 6//1 7//1
f 8//1 10//1 11//1
f 8//1 9//1 3//1
f 7//1 10//1 8//1
f 1//1 5//1 8//1
f 17//1 18//1 16//1
f 21//1 22//1 20//1
f 12//1 15//1 16//1
f 16//1 18//1 21//1
f 16//1 19//1 14//1
f 29//2 28//2 26//2
f 33//2 32//2 30//2
f 25//2 31//2 30//2
f 30//2 32//2 29//2
f 30//2 27//2 23//2
f 38//2 40//2 39//2
f 42//2 44//2 43//2
f 38//2 37//2 34//2
f 43//2 40//2 38//2
f 36//2 41//2 38//2
f 47//1 48//1 46//1
f 53//1 54//1 48//1
f 48//1 51//1 49//1
f 48//1 54//1 55//1
f 60//1 62//1 63//1
f 62//1 65//1 66//1
f 57//1 59//1 62//1
f 64//1 65//1 62//1
f 68//2 70//2 69//2
f 70//2 76//2 75//2
f 71//2 73//2 70//2
f 77//2 76//2 70//2
f 85//2 84//2 82//2
f 88//2 87//2 84//2
f 84//2 81//2 79//2
f 84//2 87//2 86//2
f 45//1 46//1 7//1
f 10//1 49//1 50//1
f 46//1 49//1 10//1
f 56//1 57//1 18//1
f 21//1 60//1 61//1
f 18//1 57//1 60//1
f 29//2 68//2 67//2
f 72//2 71//2 32//2
f 32//2 71//2 68//2
f 40//2 79//2 78//2
f 83//2 82//2 43//2
f 82//2 79//2 40//2
f 4//3 5//3 27//3
f 26//4 28//4 6//4
f 3//5 25//5 24//5
f 2//6 24//6 23//6
f 23//7 27//7 5//7
f 31//8 25//8 3//8
f 67//9 69//9 47//9
f 76//10 54//10 53//10
f 72//11 50//11 49//11
f 73//12 71//12 49//12
f 72//13 74//13 52//13
f 77//14 55//14 54//14
f 69//15 75//15 53//15
f 77//16 73//16 51//16
f 13//17 35//17 34//17
f 20//18 42//18 41//18
f 44//19 42//19 20//19
f 14//20 36//20 35//20
f 34//21 37//21 15//21
f 41//22 36//22 14//22
f 79//23 57//23 56//23
f 80//24 78//24 56//24
f 79//25 81//25 59//25
f 85//26 83//26 61//26
f 88//27 66//27 65//27
f 87//28 65//28 64//28
f 81//29 86//29 64//29
f 88//30 85//30 63//30
f 11//1 17//1 15//1
f 37//2 39//2 33//2
f 52//1 58//1 56//1
f 78//2 80//2 74//2
f 15//31 37//31 31//31
f 80//32 58//32 52//32
f 50//1 56//1 17//1
f 39//2 78//2 72//2
f 6//33 28//33 67//33
f 83//34 44//34 22//34
