# Blender 4.3.2
# www.blender.org
mtllib number1.mtl
o 1
v -0.512504 -1.219801 0.100002
v -0.198773 -1.271459 0.100002
v -0.539795 -1.198180 0.100002
v -0.539795 -0.447752 0.100002
v -0.194967 -0.952097 0.100002
v -0.194967 -0.447752 0.100002
v -0.539795 0.056592 0.100002
v -0.539795 0.778282 0.100002
v -0.194967 0.056592 0.100002
v -0.194967 0.560936 0.100002
v -0.473694 0.837494 0.100002
v -0.301550 0.899131 0.100002
v -0.512504 -1.219801 -0.099998
v -0.198773 -1.271459 -0.099998
v -0.539795 -1.198180 -0.099998
v -0.539795 -0.447752 -0.099998
v -0.194967 -0.952097 -0.099998
v -0.194967 -0.447752 -0.099998
v -0.539795 0.056592 -0.099998
v -0.539795 0.778282 -0.099998
v -0.194967 0.056592 -0.099998
v -0.194967 0.560936 -0.099998
v -0.473694 0.837494 -0.099998
v -0.301550 0.899131 -0.099998
v 0.277712 -1.260490 0.100002
v 0.331931 -0.976237 0.100002
v 0.297203 -0.447752 0.100002
v 0.297203 0.104417 0.100002
v 0.397623 0.824228 0.100002
v 0.651986 0.104417 0.100002
v 0.658046 0.703233 0.100002
v 0.158121 0.846308 0.100002
v 0.277712 -1.260490 -0.099998
v 0.331931 -0.976237 -0.099998
v 0.297203 -0.447752 -0.099998
v 0.297203 0.104417 -0.099998
v 0.397623 0.824228 -0.099998
v 0.651986 0.104417 -0.099998
v 0.658046 0.703233 -0.099998
v 0.158121 0.846308 -0.099998
vn -0.0000 -0.0000 1.0000
vn -0.0000 -0.0000 -1.0000
vn -0.1625 -0.9867 -0.0000
vn -1.0000 -0.0000 -0.0000
vn -0.6210 -0.7838 -0.0000
vn 0.9978 0.0656 -0.0000
vn 0.9823 -0.1874 -0.0000
vn -0.3371 0.9415 -0.0000
vn -0.6672 0.7449 -0.0000
vn 0.9999 -0.0101 -0.0000
vn -0.0000 -1.0000 -0.0000
vn 0.4214 0.9069 -0.0000
vn 0.0918 0.9958 -0.0000
vn 1.0000 -0.0000 -0.0000
vn 0.0230 -0.9997 -0.0000
vn 0.1142 0.9935 -0.0000
s 0
f 5//1 4//1 3//1
f 2//1 3//1 1//1
f 7//1 10//1 8//1
f 8//1 12//1 11//1
f 16//2 17//2 15//2
f 15//2 14//2 13//2
f 22//2 19//2 20//2
f 24//2 20//2 23//2
f 28//1 31//1 29//1
f 39//2 36//2 37//2
f 5//1 27//1 6//1
f 25//1 5//1 2//1
f 28//1 10//1 9//1
f 10//1 32//1 12//1
f 35//2 17//2 18//2
f 17//2 33//2 14//2
f 22//2 36//2 21//2
f 40//2 22//2 24//2
f 13//3 2//3 1//3
f 4//4 15//4 3//4
f 3//5 13//5 1//5
f 35//6 26//6 34//6
f 34//7 25//7 33//7
f 8//4 19//4 7//4
f 24//8 11//8 12//8
f 11//9 20//9 8//9
f 39//10 30//10 38//10
f 36//11 30//11 28//11
f 39//12 29//12 31//12
f 40//13 29//13 37//13
f 6//1 7//1 4//1
f 21//2 16//2 19//2
f 7//4 16//4 4//4
f 36//14 27//14 35//14
f 27//1 9//1 6//1
f 21//2 35//2 18//2
f 14//15 25//15 2//15
f 40//16 12//16 32//16
f 5//1 6//1 4//1
f 2//1 5//1 3//1
f 7//1 9//1 10//1
f 8//1 10//1 12//1
f 16//2 18//2 17//2
f 15//2 17//2 14//2
f 22//2 21//2 19//2
f 24//2 22//2 20//2
f 28//1 30//1 31//1
f 39//2 38//2 36//2
f 5//1 26//1 27//1
f 25//1 26//1 5//1
f 28//1 29//1 10//1
f 10//1 29//1 32//1
f 35//2 34//2 17//2
f 17//2 34//2 33//2
f 22//2 37//2 36//2
f 40//2 37//2 22//2
f 13//3 14//3 2//3
f 4//4 16//4 15//4
f 3//5 15//5 13//5
f 35//6 27//6 26//6
f 34//7 26//7 25//7
f 8//4 20//4 19//4
f 24//8 23//8 11//8
f 11//9 23//9 20//9
f 39//10 31//10 30//10
f 36//11 38//11 30//11
f 39//12 37//12 29//12
f 40//13 32//13 29//13
f 6//1 9//1 7//1
f 21//2 18//2 16//2
f 7//4 19//4 16//4
f 36//14 28//14 27//14
f 27//1 28//1 9//1
f 21//2 36//2 35//2
f 14//15 33//15 25//15
f 40//16 24//16 12//16
