# Blender 4.3.2
# www.blender.org
mtllib pole.mtl
o Pole
v -5.985903 -0.200000 0.200000
v -5.985903 0.200000 0.200000
v -5.985903 -0.200000 -0.063348
v -5.985903 0.200000 -0.063348
v -5.800000 -0.200000 0.200000
v -5.800000 0.200000 0.200000
v -5.800000 -0.200000 -0.063348
v -5.800000 0.200000 -0.063348
v -5.985903 6.083235 0.200000
v -5.985903 6.083235 -0.063348
v -5.800000 5.991558 0.028330
v -5.800000 5.991558 0.108322
v -5.985903 5.726381 -0.063348
v -5.800000 5.875331 0.028330
v -5.800000 5.875331 0.108322
v -5.985903 5.726381 0.200000
v -5.800000 6.083235 -0.063348
v -5.800000 6.083235 0.200000
v -5.800000 5.726381 -0.063348
v -5.800000 5.726381 0.200000
v 0.004257 5.991558 0.028330
v 0.004257 5.991558 0.108322
v 0.004257 5.875331 0.028330
v 0.004257 5.875331 0.108322
v 5.985904 -0.200000 0.200000
v 5.985904 0.200000 0.200000
v 5.985904 -0.200000 -0.063348
v 5.985904 0.200000 -0.063348
v 5.800000 -0.200000 0.200000
v 5.800000 0.200000 0.200000
v 5.800000 -0.200000 -0.063348
v 5.800000 0.200000 -0.063348
v 5.985904 6.083235 0.200000
v 5.985904 6.083235 -0.063348
v 5.800000 5.991558 0.028330
v 5.800000 5.991558 0.108322
v 5.985904 5.726381 -0.063348
v 5.800000 5.875331 0.028330
v 5.800000 5.875331 0.108322
v 5.985904 5.726381 0.200000
v 5.800000 6.083235 -0.063348
v 5.800000 6.083235 0.200000
v 5.800000 5.726381 -0.063348
v 5.800000 5.726381 0.200000
v -0.004257 5.991558 0.028330
v -0.004257 5.991558 0.108322
v -0.004257 5.875331 0.028330
v -0.004257 5.875331 0.108322
vn -1.0000 -0.0000 -0.0000
vn -0.0000 -0.0000 -1.0000
vn 1.0000 -0.0000 -0.0000
vn -0.0000 -0.0000 1.0000
vn -0.0000 -1.0000 -0.0000
vn -0.0000 1.0000 -0.0000
vt 0.082031 0.449219
vt 0.070312 0.437500
vt 0.082031 0.437500
vt 0.082031 0.445312
vt 0.074219 0.437500
vt 0.375000 0.500000
vt 0.125000 0.750000
vt 0.125000 0.500000
vt 0.082031 0.554688
vt 0.074219 0.562500
vt 0.074219 0.554688
vt 0.082031 0.562500
vt 0.070312 0.546875
vt 0.082031 0.546875
vt 0.082031 0.550781
vt 0.070312 0.562500
vt 0.070312 0.550781
vt 0.070312 0.554688
vt 0.070312 0.445312
vt 0.070312 0.449219
vt 0.074219 0.445312
vt 0.078125 0.562500
vt 0.078125 0.558594
vt 0.074219 0.558594
vt 0.625000 0.557299
vt 0.625000 0.692701
vt 0.375000 0.750000
vt 0.625000 0.557299
s 0
usemtl Shared_material.001
f 2/1/1 3/2/1 1/3/1
f 4/4/2 7/5/2 3/3/2
f 8/4/3 5/2/3 7/3/3
f 6/4/4 1/2/4 5/3/4
f 7/6/5 1/7/5 3/8/5
f 13/9/2 17/10/2 19/11/2
f 10/12/6 18/13/6 17/14/6
f 15/10/4 22/3/4 12/12/4
f 16/15/1 10/16/1 13/17/1
f 20/9/4 9/16/4 16/18/4
f 6/4/4 16/18/4 2/19/4
f 2/1/1 13/17/1 4/20/1
f 8/4/3 20/18/3 6/19/3
f 4/4/2 19/11/2 8/21/2
f 11/22/3 18/16/3 12/10/3
f 14/23/3 17/12/3 11/22/3
f 15/24/3 18/16/3 20/18/3
f 15/24/3 19/9/3 14/23/3
f 23/25/3 22/26/3 24/26/3
f 12/13/6 21/3/6 11/14/6
f 14/16/5 24/3/5 15/12/5
f 11/3/2 23/10/2 14/5/2
f 27/2/3 26/1/3 25/3/3
f 31/5/2 28/4/2 27/3/2
f 29/2/1 32/4/1 31/3/1
f 25/2/4 30/4/4 29/3/4
f 25/7/5 31/6/5 27/8/5
f 41/10/2 37/9/2 43/11/2
f 42/13/6 34/12/6 41/14/6
f 46/3/4 39/10/4 36/12/4
f 34/16/3 40/15/3 37/17/3
f 33/16/4 44/9/4 40/18/4
f 40/18/4 30/4/4 26/19/4
f 37/17/3 26/1/3 28/20/3
f 44/18/1 32/4/1 30/19/1
f 43/11/2 28/4/2 32/21/2
f 42/16/1 35/22/1 36/10/1
f 41/12/1 38/23/1 35/22/1
f 39/24/1 42/16/1 36/10/1
f 43/9/1 39/24/1 38/23/1
f 46/26/1 47/25/1 48/26/1
f 45/3/6 36/13/6 35/14/6
f 48/3/5 38/16/5 39/12/5
f 47/10/2 35/3/2 38/5/2
f 2/1/1 4/20/1 3/2/1
f 4/4/2 8/21/2 7/5/2
f 8/4/3 6/19/3 5/2/3
f 6/4/4 2/19/4 1/2/4
f 7/6/5 5/27/5 1/7/5
f 13/9/2 10/12/2 17/10/2
f 10/12/6 9/16/6 18/13/6
f 15/10/4 24/5/4 22/3/4
f 16/15/1 9/12/1 10/16/1
f 20/9/4 18/12/4 9/16/4
f 6/4/4 20/9/4 16/18/4
f 2/1/1 16/15/1 13/17/1
f 8/4/3 19/9/3 20/18/3
f 4/4/2 13/9/2 19/11/2
f 11/22/3 17/12/3 18/16/3
f 14/23/3 19/9/3 17/12/3
f 15/24/3 12/10/3 18/16/3
f 15/24/3 20/18/3 19/9/3
f 23/25/3 21/28/3 22/26/3
f 12/13/6 22/2/6 21/3/6
f 14/16/5 23/2/5 24/3/5
f 11/3/2 21/12/2 23/10/2
f 27/2/3 28/20/3 26/1/3
f 31/5/2 32/21/2 28/4/2
f 29/2/1 30/19/1 32/4/1
f 25/2/4 26/19/4 30/4/4
f 25/7/5 29/27/5 31/6/5
f 41/10/2 34/12/2 37/9/2
f 42/13/6 33/16/6 34/12/6
f 46/3/4 48/5/4 39/10/4
f 34/16/3 33/12/3 40/15/3
f 33/16/4 42/12/4 44/9/4
f 40/18/4 44/9/4 30/4/4
f 37/17/3 40/15/3 26/1/3
f 44/18/1 43/9/1 32/4/1
f 43/11/2 37/9/2 28/4/2
f 42/16/1 41/12/1 35/22/1
f 41/12/1 43/9/1 38/23/1
f 39/24/1 44/18/1 42/16/1
f 43/9/1 44/18/1 39/24/1
f 46/26/1 45/28/1 47/25/1
f 45/3/6 46/2/6 36/13/6
f 48/3/5 47/2/5 38/16/5
f 47/10/2 45/12/2 35/3/2
