# Blender 4.4.0
# www.blender.org
mtllib tree.mtl
o Tree
v -0.227671 -1.964607 0.227671
v -1.442722 0.106285 1.120527
v -0.227671 -1.964607 -0.227671
v -1.189746 0.072185 -0.945980
v 0.227671 -1.964607 0.227671
v 0.980844 0.605475 0.828015
v 0.227671 -1.964607 -0.227671
v 1.250531 -0.252803 -1.024923
v -0.750000 -1.964607 -0.750000
v -0.869799 -1.897873 0.978005
v 0.750000 -1.964607 -0.750000
v 0.750000 -1.964607 0.750000
v -0.227671 -3.441398 -0.227671
v -0.227671 -3.441398 0.227671
v 0.227671 -3.441398 -0.227671
v 0.227671 -3.441398 0.227671
v -1.096361 -0.929161 0.935264
v -0.969873 -0.946211 -0.847990
v 1.115440 -1.351366 -0.859104
v 1.371187 -0.918858 0.962823
v 0.000000 -1.964607 -0.750000
v 0.030393 -0.090309 -0.985452
v 0.000000 -1.964607 0.750000
v -0.230939 0.355880 0.974271
v 0.000000 -1.964607 -0.227671
v 0.000000 -1.964607 0.227671
v 0.000000 -3.441398 -0.227671
v 0.000000 -3.441398 0.227671
v 0.137413 -0.924009 0.949043
v 0.072784 -1.148788 -0.853547
v -0.750000 -1.964607 0.000000
v -1.316234 0.089235 0.087274
v 0.750000 -1.964607 0.000000
v 1.115688 0.176336 -0.098454
v -0.227671 -1.964607 0.000000
v 0.227671 -1.964607 0.000000
v -0.227671 -3.441398 0.000000
v 0.227671 -3.441398 0.000000
v 1.243314 -1.135112 0.051859
v -1.310848 -1.070389 0.102904
v 0.000000 -3.441398 0.000000
v -0.100273 0.676348 -0.005590
vn -0.9659 -0.1121 -0.2336
vn -0.0415 -0.1349 -0.9900
vn 0.9831 0.1738 -0.0573
vn 0.0614 -0.0716 0.9955
vn -0.0000 -0.0000 1.0000
vn -0.3151 0.9436 0.1020
vn -0.0231 -0.9983 0.0530
vn -0.0000 -1.0000 -0.0000
vn -0.0000 -0.0000 -1.0000
vn 1.0000 -0.0000 -0.0000
vn -1.0000 -0.0000 -0.0000
vn 0.0989 -0.0728 0.9924
vn 0.8596 -0.5109 0.0003
vn -0.0191 -0.1414 -0.9898
vn -0.9057 -0.3692 -0.2085
vn -0.0156 -0.1104 -0.9938
vn -0.0063 -0.1915 0.9815
vn -0.0557 -0.9982 0.0243
vn 0.0983 0.9942 -0.0430
vn 0.0486 0.0521 0.9975
vn -0.0383 -0.1147 -0.9927
vn 0.2018 0.8421 -0.5001
vn -0.9161 -0.3902 0.0927
vn 0.8593 -0.5115 0.0004
vn -0.1789 0.9089 -0.3767
vn 1.0000 -0.0025 0.0047
vn -0.9849 -0.1625 0.0602
vt 0.648438 0.347656
vt 0.648438 0.328125
vt 0.667969 0.328125
vt 0.667969 0.347656
vt 0.683594 0.347656
vt 0.683594 0.328125
vt 0.703125 0.328125
vt 0.703125 0.347656
vt 0.722656 0.347656
vt 0.722656 0.328125
vt 0.738281 0.328125
vt 0.738281 0.347656
vt 0.757812 0.347656
vt 0.757812 0.328125
vt 0.777344 0.328125
vt 0.777344 0.347656
vt 0.761719 0.179688
vt 0.765625 0.179688
vt 0.765625 0.191406
vt 0.761719 0.191406
vt 0.722656 0.308594
vt 0.722656 0.292969
vt 0.738281 0.292969
vt 0.738281 0.308594
vt 0.212055 0.625000
vt 0.212055 0.662945
vt 0.125000 0.750000
vt 0.125000 0.625000
vt 0.250000 0.587055
vt 0.212055 0.587055
vt 0.125000 0.500000
vt 0.250000 0.500000
vt 0.287945 0.625000
vt 0.287945 0.587055
vt 0.375000 0.500000
vt 0.375000 0.625000
vt 0.250000 0.662945
vt 0.287945 0.662945
vt 0.375000 0.750000
vt 0.250000 0.750000
vt 0.796875 0.164062
vt 0.808594 0.164062
vt 0.808594 0.175781
vt 0.796875 0.175781
vt 0.769531 0.179688
vt 0.769531 0.191406
vt 0.773438 0.179688
vt 0.773438 0.191406
vt 0.777344 0.179688
vt 0.777344 0.191406
vt 0.757812 0.363281
vt 0.777344 0.363281
vt 0.722656 0.363281
vt 0.738281 0.363281
vt 0.683594 0.363281
vt 0.703125 0.363281
vt 0.648438 0.363281
vt 0.667969 0.363281
vt 0.789062 0.164062
vt 0.789062 0.175781
vt 0.703125 0.308594
vt 0.789062 0.156250
vt 0.796875 0.156250
vt 0.628906 0.363281
vt 0.628906 0.347656
vt 0.808594 0.156250
vt 0.703125 0.292969
vt 0.628906 0.328125
s 0
usemtl Shared_material
f 40/1/1 32/2/1 4/3/1 18/4/1
f 30/5/2 22/6/2 8/7/2 19/8/2
f 39/9/3 34/10/3 6/11/3 20/12/3
f 29/13/4 24/14/4 2/15/4 17/16/4
f 26/17/5 1/18/5 14/19/5 28/20/5
f 42/21/6 32/22/6 2/23/6 24/24/6
f 35/25/7 1/26/7 10/27/7 31/28/7
f 25/29/8 3/30/8 9/31/8 21/32/8
f 36/33/8 7/34/8 11/35/8 33/36/8
f 26/37/8 5/38/8 12/39/8 23/40/8
f 41/41/8 38/42/8 16/43/8 28/44/8
f 25/18/9 7/45/9 15/46/9 27/19/9
f 36/47/10 5/47/10 16/48/10 38/48/10
f 35/49/11 3/49/11 13/50/11 37/50/11
f 23/51/12 29/13/12 17/16/12 10/52/12
f 33/53/13 39/9/13 20/12/13 12/54/13
f 21/55/14 30/5/14 19/8/14 11/56/14
f 31/57/15 40/1/15 18/4/15 9/58/15
f 9/58/16 18/4/16 30/5/16 21/55/16
f 12/54/17 20/12/17 29/13/17 23/51/17
f 3/18/9 25/18/9 27/19/9 13/19/9
f 37/59/8 41/41/8 28/44/8 14/60/8
f 1/26/18 26/37/18 23/40/18 10/27/18
f 7/34/8 25/29/8 21/32/8 11/35/8
f 34/10/19 42/21/19 24/24/19 6/11/19
f 5/17/5 26/17/5 28/20/5 16/20/5
f 20/12/20 6/11/20 24/14/20 29/13/20
f 18/4/21 4/3/21 22/6/21 30/5/21
f 8/7/22 22/61/22 42/21/22 34/10/22
f 13/62/8 27/63/8 41/41/8 37/59/8
f 10/64/23 17/65/23 40/1/23 31/57/23
f 11/56/24 19/8/24 39/9/24 33/53/24
f 1/47/11 35/49/11 37/50/11 14/48/11
f 7/45/10 36/47/10 38/48/10 15/46/10
f 27/63/8 15/66/8 38/42/8 41/41/8
f 5/38/8 36/33/8 33/36/8 12/39/8
f 3/30/8 35/25/8 31/28/8 9/31/8
f 22/61/25 4/67/25 32/22/25 42/21/25
f 19/8/26 8/7/26 34/10/26 39/9/26
f 17/65/27 2/68/27 32/2/27 40/1/27
