# Blender 4.4.0
# www.blender.org
mtllib tree2.mtl
o Tree_2
v -0.227671 -1.964607 0.227671
v -1.442722 3.268240 1.120527
v -0.227671 -1.964607 -0.227671
v -1.189746 3.234139 -0.945980
v 0.227671 -1.964607 0.227671
v 0.980844 3.767430 0.828015
v 0.227671 -1.964607 -0.227671
v 1.250531 2.909152 -1.024923
v -0.750000 -1.964607 -0.750000
v -0.869799 -1.897873 0.978005
v 0.750000 -1.964607 -0.750000
v 0.750000 -1.964607 0.750000
v -0.227671 -3.441398 -0.227671
v -0.227671 -3.441398 0.227671
v 0.227671 -3.441398 -0.227671
v 0.227671 -3.441398 0.227671
v -1.096361 -0.929161 0.935264
v -0.969873 -0.946211 -0.847990
v 1.115440 -1.351366 -0.859104
v 1.371187 -0.918858 0.962823
v 0.000000 -1.964607 -0.750000
v 0.030393 3.071645 -0.985452
v 0.000000 -1.964607 0.750000
v -0.230939 3.517835 0.974271
v 0.000000 -1.964607 -0.227671
v 0.000000 -1.964607 0.227671
v 0.000000 -3.441398 -0.227671
v 0.000000 -3.441398 0.227671
v 0.137413 -0.924009 0.949043
v 0.072784 -1.148788 -0.853547
v -0.750000 -1.964607 0.000000
v -1.316234 3.251190 0.087274
v 0.750000 -1.964607 0.000000
v 1.115688 3.338291 -0.098454
v -0.227671 -1.964607 0.000000
v 0.227671 -1.964607 0.000000
v -0.227671 -3.441398 0.000000
v 0.227671 -3.441398 0.000000
v 1.243314 -1.135112 0.051859
v -1.310848 -1.070389 0.102904
v 0.000000 -3.441398 0.000000
v -0.100273 3.838303 -0.005590
v -1.425419 1.175586 1.152527
v -1.212113 1.146833 -1.011510
v 1.331823 0.736403 -1.062133
v 1.323987 1.461983 1.003591
v -0.050716 1.318784 1.078059
v 0.059855 0.941618 -1.036822
v 1.327905 1.099193 -0.029271
v -1.474885 1.086614 0.103824
vn -0.9832 0.0439 -0.1772
vn -0.0230 0.0200 -0.9995
vn 0.9923 0.1224 0.0208
vn 0.0797 0.0352 0.9962
vn -0.0000 -0.0000 1.0000
vn -0.3151 0.9436 0.1020
vn -0.0231 -0.9983 0.0530
vn -0.0000 -1.0000 -0.0000
vn -0.0000 -0.0000 -1.0000
vn 1.0000 -0.0000 -0.0000
vn -1.0000 -0.0000 -0.0000
vn 0.0989 -0.0728 0.9924
vn 0.8596 -0.5109 0.0003
vn -0.0191 -0.1414 -0.9898
vn -0.9057 -0.3692 -0.2085
vn -0.0156 -0.1104 -0.9938
vn -0.0063 -0.1915 0.9815
vn -0.0557 -0.9982 0.0243
vn 0.0983 0.9942 -0.0430
vn 0.0742 0.0703 0.9948
vn -0.0219 0.0277 -0.9994
vn 0.2018 0.8421 -0.5001
vn -0.9161 -0.3902 0.0927
vn 0.8593 -0.5115 0.0004
vn -0.1789 0.9089 -0.3767
vn 0.9968 0.0666 0.0437
vn -0.9987 0.0327 -0.0386
vn -0.9808 -0.1213 0.1525
vn 0.9965 -0.0722 -0.0421
vn -0.0281 -0.0843 -0.9960
vn 0.0253 -0.0354 0.9991
vn 0.0275 -0.0761 0.9967
vn 0.9981 -0.0086 -0.0611
vn -0.0292 -0.0906 -0.9955
vn -0.9524 -0.1020 -0.2874
vt 0.738281 0.316406
vt 0.738281 0.281250
vt 0.753906 0.281250
vt 0.753906 0.312500
vt 0.683594 0.316406
vt 0.683594 0.285156
vt 0.703125 0.285156
vt 0.703125 0.320312
vt 0.718750 0.320312
vt 0.722656 0.285156
vt 0.758008 0.337779
vt 0.757812 0.328125
vt 0.777344 0.328125
vt 0.779900 0.337776
vt 0.761719 0.179688
vt 0.765625 0.179688
vt 0.765625 0.191406
vt 0.761719 0.191406
vt 0.722656 0.308594
vt 0.722656 0.292969
vt 0.738281 0.292969
vt 0.738281 0.308594
vt 0.212055 0.625000
vt 0.212055 0.662945
vt 0.125000 0.750000
vt 0.125000 0.625000
vt 0.250000 0.587055
vt 0.212055 0.587055
vt 0.125000 0.500000
vt 0.250000 0.500000
vt 0.287945 0.625000
vt 0.287945 0.587055
vt 0.375000 0.500000
vt 0.375000 0.625000
vt 0.250000 0.662945
vt 0.287945 0.662945
vt 0.375000 0.750000
vt 0.250000 0.750000
vt 0.796875 0.164062
vt 0.808594 0.164062
vt 0.808594 0.175781
vt 0.796875 0.175781
vt 0.769531 0.179688
vt 0.769531 0.191406
vt 0.773438 0.179688
vt 0.773438 0.191406
vt 0.777344 0.179688
vt 0.777344 0.191406
vt 0.757812 0.363281
vt 0.757812 0.347656
vt 0.777344 0.347656
vt 0.777344 0.363281
vt 0.722656 0.363281
vt 0.722656 0.347656
vt 0.738281 0.347656
vt 0.738281 0.363281
vt 0.683594 0.363281
vt 0.683594 0.351562
vt 0.699219 0.351562
vt 0.695312 0.363281
vt 0.648438 0.363281
vt 0.648438 0.347656
vt 0.667969 0.347656
vt 0.667969 0.363281
vt 0.671875 0.363281
vt 0.789062 0.164062
vt 0.789062 0.175781
vt 0.722656 0.328125
vt 0.738281 0.328125
vt 0.739977 0.337936
vt 0.664062 0.312500
vt 0.664062 0.281250
vt 0.738281 0.390625
vt 0.738281 0.371094
vt 0.753906 0.367188
vt 0.753906 0.386719
vt 0.789062 0.156250
vt 0.796875 0.156250
vt 0.628906 0.363281
vt 0.628906 0.347656
vt 0.703125 0.363281
vt 0.703125 0.347656
vt 0.808594 0.156250
vt 0.738281 0.351562
vt 0.750000 0.347656
vt 0.703125 0.328125
vt 0.707031 0.292969
vt 0.626281 0.337868
vt 0.628906 0.328125
vt 0.648438 0.328125
vt 0.648119 0.337884
vt 0.703125 0.359375
vt 0.718750 0.355469
vt 0.734375 0.355469
vt 0.753906 0.347656
s 0
usemtl Shared_material
f 50/1/1 32/2/1 4/3/1 44/4/1
f 48/5/2 22/6/2 8/7/2 45/8/2
f 49/9/3 34/10/3 6/2/3 46/1/3
f 47/11/4 24/12/4 2/13/4 43/14/4
f 26/15/5 1/16/5 14/17/5 28/18/5
f 42/19/6 32/20/6 2/21/6 24/22/6
f 35/23/7 1/24/7 10/25/7 31/26/7
f 25/27/8 3/28/8 9/29/8 21/30/8
f 36/31/8 7/32/8 11/33/8 33/34/8
f 26/35/8 5/36/8 12/37/8 23/38/8
f 41/39/8 38/40/8 16/41/8 28/42/8
f 25/16/9 7/43/9 15/44/9 27/17/9
f 36/45/10 5/45/10 16/46/10 38/46/10
f 35/47/11 3/47/11 13/48/11 37/48/11
f 23/49/12 29/50/12 17/51/12 10/52/12
f 33/53/13 39/54/13 20/55/13 12/56/13
f 21/57/14 30/58/14 19/59/14 11/60/14
f 31/61/15 40/62/15 18/63/15 9/64/15
f 9/65/16 18/63/16 30/58/16 21/57/16
f 12/56/17 20/55/17 29/50/17 23/49/17
f 3/16/9 25/16/9 27/17/9 13/17/9
f 37/66/8 41/39/8 28/42/8 14/67/8
f 1/24/18 26/35/18 23/38/18 10/25/18
f 7/32/8 25/27/8 21/30/8 11/33/8
f 34/68/19 42/19/19 24/22/19 6/69/19
f 5/15/5 26/15/5 28/18/5 16/18/5
f 46/70/20 6/69/20 24/12/20 47/11/20
f 44/71/21 4/72/21 22/6/21 48/5/21
f 8/73/22 22/74/22 42/75/22 34/76/22
f 13/77/8 27/78/8 41/39/8 37/66/8
f 10/79/23 17/80/23 40/62/23 31/61/23
f 11/81/24 19/82/24 39/54/24 33/53/24
f 1/45/11 35/47/11 37/48/11 14/46/11
f 7/43/10 36/45/10 38/46/10 15/44/10
f 27/78/8 15/83/8 38/40/8 41/39/8
f 5/36/8 36/31/8 33/34/8 12/37/8
f 3/28/8 35/23/8 31/26/8 9/29/8
f 22/74/25 4/84/25 32/85/25 42/75/25
f 45/86/26 8/87/26 34/10/26 49/9/26
f 43/88/27 2/89/27 32/90/27 50/91/27
f 17/80/28 43/88/28 50/91/28 40/62/28
f 19/92/29 45/86/29 49/9/29 39/93/29
f 18/63/30 44/71/30 48/5/30 30/58/30
f 20/55/31 46/70/31 47/11/31 29/50/31
f 29/50/32 47/11/32 43/14/32 17/51/32
f 39/93/33 49/9/33 46/1/33 20/94/33
f 30/58/34 48/5/34 45/8/34 19/59/34
f 40/55/35 50/1/35 44/4/35 18/95/35
